<svg version="1.1" id="Layer_1" xmlns="http://www.w3.org/2000/svg" xmlns:xlink="http://www.w3.org/1999/xlink" x="0px" y="0px"
	 width="100%" viewBox="0 0 912 544" enable-background="new 0 0 912 544" xml:space="preserve">
<path fill="#000000" opacity="1.000000" stroke="none" 
	d="
M261.054352,301.999115 
	C261.061035,306.998566 261.175232,311.501495 261.038696,315.996826 
	C260.936768,319.352386 262.140045,320.880890 265.684662,320.721466 
	C270.174866,320.519531 274.683136,320.758606 279.180908,320.669708 
	C282.142883,320.611145 283.374908,321.870300 283.358185,324.845154 
	C283.287903,337.343933 283.286469,349.843475 283.347137,362.342316 
	C283.362091,365.425446 281.860443,366.365234 279.019714,366.361694 
	C248.688324,366.323761 218.356812,366.315918 188.025482,366.372650 
	C184.796097,366.378662 183.606903,365.045166 183.629471,361.885742 
	C183.717606,349.553833 183.705734,337.220764 183.645813,324.888550 
	C183.631516,321.947479 184.811325,320.616638 187.798584,320.674133 
	C192.296432,320.760651 196.804062,320.528290 201.295059,320.721436 
	C204.801819,320.872223 206.033356,319.391113 206.000610,316.019379 
	C205.908340,306.520996 205.993912,297.021027 205.994720,287.521667 
	C205.997803,251.695511 205.995209,215.869370 205.994339,180.043213 
	C205.994186,173.466644 205.892868,173.364807 199.329178,173.345215 
	C195.329544,173.333282 191.329651,173.292770 187.330368,173.326233 
	C184.837875,173.347092 183.673019,172.208923 183.678024,169.701248 
	C183.703613,156.869141 183.704834,144.036942 183.686920,131.204819 
	C183.683304,128.618164 185.060959,127.657318 187.456833,127.699036 
	C188.622711,127.719337 189.789612,127.670410 190.956039,127.670395 
	C252.785660,127.669762 314.615265,127.669380 376.444885,127.674156 
	C383.989471,127.674744 384.105347,127.769402 384.109558,135.101120 
	C384.122345,157.266388 384.120544,179.431671 384.096863,201.596909 
	C384.089630,208.349014 383.482391,208.966461 376.637329,208.998810 
	C367.138153,209.043716 357.637878,208.926865 348.139526,209.023880 
	C344.514740,209.060913 342.739868,207.896988 342.467224,203.931137 
	C341.921082,195.987320 340.677856,188.093506 340.631104,180.105942 
	C340.597107,174.295807 339.699249,173.349533 334.115051,173.348663 
	C311.949768,173.345215 289.783203,173.475510 267.620178,173.252625 
	C262.735840,173.203522 260.826050,174.394501 260.947388,179.631256 
	C261.283295,194.122803 261.183777,208.627289 261.057343,223.124924 
	C261.019928,227.417664 262.587585,228.948669 266.940765,228.907776 
	C285.770782,228.730881 304.603394,228.821304 323.435059,228.838562 
	C329.971527,228.844559 330.302155,229.178574 330.319336,235.527634 
	C330.341431,243.693756 330.042633,251.873627 330.432739,260.021240 
	C330.682434,265.236084 328.704742,266.501831 323.789917,266.439240 
	C304.960846,266.199280 286.124939,266.493164 267.295837,266.254639 
	C262.473297,266.193573 260.856415,267.728516 260.990417,272.506592 
	C261.261261,282.163818 261.060486,291.834320 261.054352,301.999115 
z"/>
<path fill="#000000" opacity="1.000000" stroke="none" 
	d="
M597.999878,173.336121 
	C588.834473,173.343414 580.166443,173.475906 571.504761,173.300217 
	C567.644104,173.221893 566.220947,174.560638 566.266357,178.514679 
	C566.438599,193.510590 566.470947,208.511551 566.253967,223.506287 
	C566.192322,227.770355 567.757996,228.903397 571.774536,228.873428 
	C590.937378,228.730499 610.101990,228.804932 629.265930,228.835678 
	C635.660583,228.845947 636.187988,229.370468 636.210388,235.615234 
	C636.240356,243.947250 636.066833,252.282669 636.256042,260.610382 
	C636.354919,264.964539 634.607605,266.432922 630.328735,266.402557 
	C610.999146,266.265350 591.667114,266.457367 572.338013,266.292297 
	C567.905029,266.254456 566.140991,267.449799 566.233215,272.211182 
	C566.510803,286.537170 566.506226,300.875122 566.235474,315.201324 
	C566.148987,319.780182 567.823914,321.019684 572.051025,320.737976 
	C576.364075,320.450562 580.712708,320.738586 585.044495,320.680237 
	C587.998047,320.640442 589.286377,322.041931 589.280762,324.931305 
	C589.256775,337.262726 589.218872,349.594543 589.299255,361.925476 
	C589.322876,365.540344 587.467529,366.400604 584.268738,366.382233 
	C570.604431,366.303650 556.939392,366.357574 543.274658,366.359772 
	C527.110291,366.362396 510.944855,366.261597 494.782196,366.429413 
	C490.516022,366.473724 488.755554,365.039795 488.816772,360.680176 
	C488.978241,349.184082 488.942047,337.683563 488.836395,326.186188 
	C488.799438,322.165833 490.347809,320.388824 494.486603,320.637939 
	C498.305328,320.867798 502.166351,320.450775 505.977417,320.736450 
	C510.284271,321.059357 511.896027,319.572968 511.783142,315.101990 
	C511.518311,304.610321 511.713043,294.107147 511.712036,283.608643 
	C511.708740,249.446777 511.703552,215.284912 511.693329,181.123047 
	C511.690979,173.344421 511.680237,173.345078 503.665771,173.341248 
	C500.332916,173.339661 496.996948,173.243256 493.668152,173.357773 
	C490.577576,173.464111 488.931549,172.208832 488.929352,169.037048 
	C488.920715,156.705750 488.909821,144.374451 488.904572,132.043152 
	C488.903259,128.910309 490.481476,127.584854 493.602905,127.658295 
	C498.099609,127.764099 502.600922,127.670380 507.100250,127.670494 
	C564.925476,127.671989 622.750671,127.674896 680.575867,127.677803 
	C689.327576,127.678246 690.988159,129.272400 689.984863,138.131363 
	C688.783447,148.739288 690.335999,159.313538 689.920898,169.865311 
	C689.455994,181.682999 689.477112,193.492142 689.311462,205.305328 
	C689.275208,207.891785 687.719055,208.887848 685.467712,208.901276 
	C674.470825,208.966949 663.473145,209.001343 652.476379,208.939774 
	C648.330566,208.916565 647.973511,205.818954 647.736084,202.654327 
	C647.114197,194.364532 646.245972,186.088577 645.841187,177.789291 
	C645.669922,174.278259 644.359497,173.248810 640.991638,173.280563 
	C626.828857,173.414093 612.664001,173.336304 597.999878,173.336121 
z"/>
<path fill="#000000" opacity="1.000000" stroke="none" 
	d="
M728.094482,138.000122 
	C728.126160,202.653183 728.167297,266.806213 728.186890,330.959259 
	C728.204102,387.279907 728.198792,443.600525 728.199158,499.921173 
	C728.199158,507.173096 728.179626,507.234283 721.258728,506.387146 
	C691.745483,502.774475 662.244995,499.056183 632.724304,495.505829 
	C609.135010,492.668854 585.510010,490.126404 561.925293,487.253143 
	C541.649414,484.783020 521.416504,481.961945 501.148956,479.420410 
	C479.229065,476.671692 457.302795,473.962341 435.349579,471.500885 
	C431.606781,471.081207 430.590149,469.650574 430.636200,466.190155 
	C430.773651,455.860718 430.892670,445.522522 430.604919,435.199310 
	C430.445038,429.462372 434.396240,430.461975 437.663483,430.125214 
	C441.478760,429.732025 442.468170,431.778198 442.369965,435.277222 
	C442.183014,441.937164 442.579285,448.619659 442.233002,455.266693 
	C442.021393,459.327637 443.603058,461.001221 447.385223,461.436005 
	C459.264313,462.801514 471.137024,464.224548 483.005859,465.677002 
	C503.615753,468.199158 524.186829,471.093964 544.838440,473.202972 
	C562.546448,475.011414 580.145874,477.586487 597.808105,479.699432 
	C615.291748,481.791016 632.766235,483.958405 650.244507,486.094788 
	C668.215576,488.291382 686.186218,490.492126 704.157959,492.683350 
	C704.818115,492.763824 705.492004,492.729614 706.152893,492.805725 
	C716.655884,494.015137 716.658813,494.017242 716.658936,483.695404 
	C716.660156,381.715851 716.660645,279.736298 716.660645,177.756744 
	C716.660706,139.449127 716.663635,101.141518 716.653198,62.833908 
	C716.651306,55.985680 716.475952,56.055653 709.465393,56.947304 
	C689.363220,59.504040 669.235046,61.855679 649.120972,64.319382 
	C628.349182,66.863647 607.585388,69.474220 586.811462,72.001541 
	C566.365356,74.488976 545.906250,76.869438 525.461609,79.368660 
	C505.182495,81.847649 484.914368,84.416359 464.641357,86.945396 
	C458.540924,87.706413 452.456146,88.668877 446.333618,89.147087 
	C442.925446,89.413277 442.241943,91.065025 442.285797,94.003860 
	C442.392731,101.167458 442.141541,108.339691 442.381775,115.496796 
	C442.530243,119.920502 440.070190,120.253441 436.688629,120.245476 
	C433.215363,120.237289 430.502625,120.140678 430.609497,115.359451 
	C430.847717,104.700226 430.753418,94.031487 430.650726,83.367996 
	C430.620087,80.184914 431.990784,79.038055 435.039978,78.668221 
	C464.388458,75.108612 493.715485,71.372086 523.064331,67.815819 
	C554.552734,64.000298 586.069885,60.421047 617.552734,56.561035 
	C651.341125,52.418354 685.103271,48.061455 718.878967,43.814697 
	C728.195129,42.643337 728.207397,42.670612 728.197449,52.016766 
	C728.167114,80.511215 728.129456,109.005669 728.094482,138.000122 
z"/>
<path fill="#000000" opacity="1.000000" stroke="none" 
	d="
M440.784302,358.800476 
	C427.551270,369.774750 404.568542,369.495911 392.770935,357.703766 
	C386.308990,351.244873 384.838501,342.357300 386.152435,333.534882 
	C388.639954,316.832550 398.519287,308.767212 415.564728,308.655853 
	C420.729156,308.622131 425.819366,308.651398 430.807739,310.486176 
	C439.601837,313.720795 445.565765,319.495514 447.403076,328.795074 
	C449.526520,339.542938 449.609650,350.014648 440.784302,358.800476 
z"/>
<path fill="#000000" opacity="1.000000" stroke="none" 
	d="
M324.714050,410.977966 
	C324.714050,406.489197 324.640472,402.495148 324.748627,398.505981 
	C324.798798,396.655701 324.105865,394.205444 327.069885,393.796051 
	C329.807129,393.417908 332.334869,393.429626 333.606842,396.735870 
	C335.276184,401.074951 337.218445,405.309601 339.071075,409.577118 
	C339.391907,410.316193 339.850342,410.995514 340.559418,412.264954 
	C343.314178,408.405640 344.608063,404.412720 346.007080,400.469452 
	C346.617157,398.749878 347.141296,396.983246 347.932251,395.348175 
	C349.307617,392.505035 351.925323,392.663300 354.429382,393.142578 
	C357.003510,393.635254 356.404297,395.809631 356.406342,397.577637 
	C356.415649,405.550476 356.410400,413.523346 356.410400,421.364990 
	C350.645721,423.120819 349.847809,422.595612 349.726990,417.216095 
	C349.665436,414.474365 349.716217,411.730164 349.010864,408.903748 
	C347.476898,412.521088 345.892670,416.118225 344.430847,419.764465 
	C343.733215,421.504639 342.727692,422.468781 340.733398,422.435486 
	C338.773712,422.402771 337.686523,421.446014 336.989319,419.743408 
	C335.451996,415.989105 333.872467,412.252106 331.299500,408.699585 
	C331.299500,412.127502 331.277191,415.555573 331.307495,418.983246 
	C331.327087,421.197632 330.463654,422.364594 328.069916,422.333649 
	C325.726654,422.303375 324.771820,421.165222 324.765045,418.959076 
	C324.757416,416.464233 324.732330,413.969482 324.714050,410.977966 
z"/>
<path fill="#000000" opacity="1.000000" stroke="none" 
	d="
M503.385925,421.359863 
	C498.838226,423.381531 496.840240,422.007568 496.925690,417.333313 
	C497.041138,411.014587 496.906250,404.691589 496.979919,398.371582 
	C497.000183,396.634064 496.608704,394.383667 499.045288,393.876770 
	C501.329346,393.401611 503.647919,393.286133 505.253510,395.727631 
	C508.330200,400.406158 511.533478,405.001434 515.692444,409.414490 
	C515.692444,405.333344 515.744141,401.251343 515.673584,397.171448 
	C515.629333,394.616547 516.763123,393.618042 519.292480,393.677612 
	C521.806885,393.736847 522.315125,395.161865 522.309814,397.251526 
	C522.292480,404.071442 522.364929,410.891937 522.291809,417.711029 
	C522.273743,419.399780 522.929199,421.659149 520.341248,422.194702 
	C517.967407,422.685944 515.741150,422.516235 514.185486,420.141937 
	C511.207031,415.596100 508.122833,411.119476 504.510498,405.766479 
	C504.185852,411.551483 503.920929,416.271881 503.385925,421.359863 
z"/>
<path fill="#000000" opacity="1.000000" stroke="none" 
	d="
M569.862183,420.161530 
	C564.295898,423.522400 558.529236,422.116638 552.956543,422.303436 
	C550.927917,422.371490 550.522461,420.977753 550.530762,419.311401 
	C550.567993,411.837158 550.605225,404.362915 550.634155,396.888672 
	C550.641785,394.921265 551.461304,393.703491 553.567322,393.730591 
	C557.381775,393.779694 561.275146,393.407349 564.991333,394.047943 
	C570.483948,394.994751 574.097107,398.360657 575.477173,404.043976 
	C577.054321,410.539246 575.460205,415.816772 569.862183,420.161530 
M558.887695,416.488647 
	C565.877258,416.724884 568.888855,414.151733 568.873657,407.956421 
	C568.860535,402.597931 565.637329,399.185974 560.774597,399.355194 
	C559.225586,399.409088 557.440979,399.468445 557.426514,401.450409 
	C557.390625,406.345795 556.202393,411.321899 558.887695,416.488647 
z"/>
<path fill="#000000" opacity="1.000000" stroke="none" 
	d="
M663.960083,394.463806 
	C671.226807,399.370392 671.174683,405.046112 664.095825,411.311279 
	C664.673645,415.072479 668.418213,417.550842 668.654053,421.705353 
	C659.459534,425.125580 660.168823,414.960754 655.349060,412.020325 
	C653.617615,414.137878 654.468140,416.540192 654.362671,418.691833 
	C654.244263,421.106323 653.516052,422.419342 650.843689,422.344238 
	C648.402893,422.275635 647.698608,420.977600 647.703247,418.840027 
	C647.719238,411.509399 647.720154,404.178680 647.708862,396.848022 
	C647.705811,394.846436 648.542542,393.660736 650.658325,393.722656 
	C654.965454,393.848694 659.313538,393.079407 663.960083,394.463806 
M654.383423,401.836304 
	C654.487427,403.854950 653.583557,406.477905 657.045410,406.557953 
	C659.364441,406.611572 661.292236,405.769287 662.273193,403.538239 
	C662.911072,402.087433 662.174438,400.703491 660.973938,400.167664 
	C658.744080,399.172485 656.280640,398.278961 654.383423,401.836304 
z"/>
<path fill="#000000" opacity="1.000000" stroke="none" 
	d="
M602.680237,399.114502 
	C602.280334,395.111816 603.539978,393.301392 607.380188,393.622711 
	C610.020020,393.843597 612.696533,393.584747 615.350403,393.692413 
	C617.372437,393.774445 620.161377,393.099457 620.008301,396.521759 
	C619.862427,399.783691 617.141235,399.058411 615.099609,399.218689 
	C614.107483,399.296570 613.107239,399.269409 612.110901,399.297882 
	C610.304443,399.349457 609.382507,400.215118 609.400635,402.090485 
	C609.419006,403.993500 610.438416,404.760437 612.204773,404.808105 
	C612.702942,404.821533 613.202942,404.814301 613.698975,404.855103 
	C615.930664,405.038666 618.926270,404.443451 618.749573,407.982788 
	C618.581909,411.341675 615.621521,410.188782 613.689026,410.317871 
	C611.361023,410.473419 609.329712,410.589630 609.364929,413.734253 
	C609.402588,417.092773 611.771545,416.701141 613.914856,416.784027 
	C615.241150,416.835327 616.580688,416.815643 617.888245,417.006409 
	C619.448486,417.234039 620.086670,418.319366 620.059143,419.850494 
	C620.029236,421.516235 619.061768,422.263641 617.530273,422.281738 
	C613.544922,422.328857 609.558289,422.348969 605.573181,422.298340 
	C602.665588,422.261414 602.709106,420.073608 602.700012,418.044434 
	C602.672424,411.897247 602.682861,405.749878 602.680237,399.114502 
z"/>
<path fill="#000000" opacity="1.000000" stroke="none" 
	d="
M203.109741,405.029175 
	C203.150009,391.470154 202.466019,393.746002 213.548477,393.790466 
	C216.207809,393.801117 221.022644,391.419373 221.343903,396.159760 
	C221.696213,401.358185 216.685455,398.580750 214.056686,399.205994 
	C212.234467,399.639404 210.305130,399.390320 210.320923,402.082062 
	C210.336258,404.694183 212.120590,404.847839 214.058334,405.002991 
	C216.119995,405.168060 218.833481,404.658661 218.957687,407.842194 
	C219.084106,411.082428 216.345886,410.862579 214.288223,410.904999 
	C211.314194,410.966339 210.009460,412.259064 210.219803,415.197113 
	C210.279022,416.024414 210.190918,416.861206 210.200943,417.693298 
	C210.230865,420.177643 210.109909,422.419830 206.644974,422.373749 
	C203.120316,422.326904 203.236206,419.817291 203.174484,417.507812 
	C203.067795,413.514923 203.123672,409.517700 203.109741,405.029175 
z"/>
<path fill="#000000" opacity="1.000000" stroke="none" 
	d="
M419.156982,422.021027 
	C416.495026,415.724701 417.840515,409.377472 417.755005,403.145844 
	C417.606720,392.339478 416.331085,393.816650 427.332581,393.666077 
	C429.163635,393.641022 430.995758,393.682281 432.827271,393.702118 
	C434.683014,393.722229 436.166168,394.208923 436.084900,396.482788 
	C436.006104,398.686493 434.524506,399.184357 432.681458,399.226105 
	C430.850769,399.267578 429.017883,399.277802 427.190582,399.382660 
	C425.436035,399.483307 424.453064,400.398193 424.433075,402.242950 
	C424.411652,404.218933 425.627960,404.801880 427.313873,404.910461 
	C428.476044,404.985229 429.646179,405.008392 430.797180,405.167419 
	C432.599731,405.416504 433.304596,406.560364 433.224365,408.326019 
	C433.148621,409.993683 432.089264,410.924866 430.667694,410.780334 
	C424.610382,410.164429 423.764801,413.616547 424.287262,418.445404 
	C424.670349,421.986267 422.589264,422.722595 419.156982,422.021027 
z"/>
<path fill="#000000" opacity="1.000000" stroke="none" 
	d="
M289.617065,415.215027 
	C291.438538,417.634369 293.799469,416.623718 295.851318,416.948242 
	C297.540619,417.215424 298.706207,417.917419 298.740784,419.751282 
	C298.777100,421.679230 297.562805,422.336517 295.831116,422.359039 
	C295.331665,422.365509 294.832123,422.401001 294.332977,422.394348 
	C280.717010,422.213196 282.923920,423.997650 282.728149,411.244476 
	C282.656586,406.582794 282.749390,401.918701 282.742279,397.255768 
	C282.739044,395.147278 283.363220,393.775146 285.836395,393.710938 
	C288.471436,393.642609 289.348511,394.877289 289.341156,397.336731 
	C289.323730,403.163605 289.422760,408.990845 289.617065,415.215027 
z"/>
<path fill="#000000" opacity="1.000000" stroke="none" 
	d="
M248.702271,421.272034 
	C247.393616,412.982361 248.128998,405.036621 247.984787,397.108887 
	C247.939240,394.604462 249.299179,393.631042 251.763031,393.682861 
	C254.088364,393.731781 255.090500,394.858154 255.090225,397.040436 
	C255.089294,404.324341 255.211151,411.612854 254.988495,418.890472 
	C254.852310,423.341705 251.854965,422.662109 248.702271,421.272034 
z"/>
<path fill="#000000" opacity="1.000000" stroke="none" 
	d="
M462.691833,418.795441 
	C462.672943,411.494537 462.664917,404.676025 462.680298,397.857574 
	C462.684906,395.814240 462.611664,393.801819 465.614532,393.706299 
	C468.566315,393.612396 469.322113,395.152863 469.303894,397.712952 
	C469.254272,404.697266 469.287781,411.682190 469.263824,418.666779 
	C469.257843,420.406647 469.062958,422.070831 466.766724,422.257385 
	C464.544556,422.437927 462.712128,422.110504 462.691833,418.795441 
z"/>
</svg>